<svg width="32" height="38" viewBox="0 0 32 38" fill="none" xmlns="http://www.w3.org/2000/svg">
<path id="arrow-icon" d="M31.0268 22.7176L16.0002 37.6665L0.973488 22.7176C0.796196 22.5826 0.649981 22.4111 0.544742 22.2147C0.439503 22.0182 0.377697 21.8015 0.363508 21.5791C0.349319 21.3567 0.383079 21.1338 0.4625 20.9256C0.541922 20.7174 0.665152 20.5287 0.823848 20.3723C0.982544 20.2158 1.173 20.0953 1.38233 20.0189C1.59165 19.9424 1.81495 19.9118 2.03712 19.9292C2.25929 19.9466 2.47513 20.0115 2.67003 20.1195C2.86494 20.2275 3.03436 20.3762 3.16682 20.5554L14.4446 31.7398V1.98206C14.4446 1.5695 14.6085 1.17384 14.9002 0.882114C15.1919 0.590391 15.5876 0.426502 16.0002 0.426502C16.4127 0.426502 16.8084 0.590391 17.1001 0.882114C17.3918 1.17384 17.5557 1.5695 17.5557 1.98206V31.7398L28.8335 20.5554C29.1264 20.2645 29.5229 20.102 29.9357 20.1034C30.3484 20.1049 30.7437 20.2703 31.0346 20.5632C31.3255 20.8561 31.488 21.2525 31.4866 21.6653C31.4851 22.0781 31.3197 22.4734 31.0268 22.7643V22.7176Z" fill="white"/>
</svg>
