<svg width="55" height="55" viewBox="0 0 55 55" fill="none" xmlns="http://www.w3.org/2000/svg">
<path d="M40.9522 33.9854C40.9372 31.9602 40.1236 30.0227 38.6883 28.5939C37.253 27.165 35.3119 26.3602 33.2866 26.3542H31.4991V9.29272C31.5136 8.36033 31.209 7.45099 30.636 6.71537C30.0629 5.97975 29.2557 5.46201 28.3481 5.24793C27.7638 5.12334 27.1592 5.13083 26.5782 5.26986C25.9973 5.40889 25.4547 5.67595 24.9902 6.05153C24.5256 6.4271 24.1509 6.9017 23.8933 7.44066C23.6357 7.97962 23.5017 8.56932 23.5012 9.16668V26.3542H21.771C19.7398 26.3602 17.7935 27.1698 16.3572 28.6061C14.921 30.0423 14.1114 31.9886 14.1054 34.0198L10.0147 46.8646C9.90673 47.208 9.88116 47.5721 9.9401 47.9272C9.99903 48.2824 10.1408 48.6187 10.354 48.9088C10.5671 49.199 10.8456 49.4348 11.1669 49.5973C11.4882 49.7597 11.8433 49.8441 12.2033 49.8438H42.797C43.157 49.8441 43.5121 49.7597 43.8334 49.5973C44.1547 49.4348 44.4332 49.199 44.6463 48.9088C44.8595 48.6187 45.0013 48.2824 45.0602 47.9272C45.1191 47.5721 45.0936 47.208 44.9856 46.8646L40.9522 33.9854ZM40.9522 33.9854H14.0481M27.5002 45.3636V33.9854M34.547 33.9854L36.6324 45.3636M20.4533 33.9854L18.3679 45.3636" stroke="white" stroke-linecap="round" stroke-linejoin="round"/>
</svg>
