<svg width="24" height="24" viewBox="0 0 24 24" fill="none" xmlns="http://www.w3.org/2000/svg">
<path d="M5.33333 4.83333H4.83333V5.33333V8V8.5H5.33333H8H8.5V8V5.33333V4.83333H8H5.33333ZM5.33333 10.1667H4.83333V10.6667V13.3333V13.8333H5.33333H8H8.5V13.3333V10.6667V10.1667H8H5.33333ZM5.33333 15.5H4.83333V16V18.6667V19.1667H5.33333H8H8.5V18.6667V16V15.5H8H5.33333ZM18.6667 19.1667H19.1667V18.6667V16V15.5H18.6667H10.6667H10.1667V16V18.6667V19.1667H10.6667H18.6667ZM18.6667 13.8333H19.1667V13.3333V10.6667V10.1667H18.6667H10.6667H10.1667V10.6667V13.3333V13.8333H10.6667H18.6667ZM18.6667 8.5H19.1667V8V5.33333V4.83333H18.6667H10.6667H10.1667V5.33333V8V8.5H10.6667H18.6667ZM2.66667 0.5H21.3333C22.5239 0.5 23.5 1.47614 23.5 2.66667V21.3333C23.5 22.5239 22.5239 23.5 21.3333 23.5H2.66667C1.47614 23.5 0.5 22.5239 0.5 21.3333V2.66667C0.5 1.47614 1.47614 0.5 2.66667 0.5Z" stroke="white"/>
</svg>
