<svg width="32" height="25" viewBox="0 0 32 25" fill="none" xmlns="http://www.w3.org/2000/svg">
<path d="M0 20.8125C0 21.8568 0.414843 22.8583 1.15327 23.5967C1.89169 24.3352 2.89321 24.75 3.9375 24.75H27.5625C28.6068 24.75 29.6083 24.3352 30.3467 23.5967C31.0852 22.8583 31.5 21.8568 31.5 20.8125V9.98438H0V20.8125ZM4.64062 15.4688C4.64062 14.9093 4.86286 14.3728 5.25845 13.9772C5.65403 13.5816 6.19056 13.3594 6.75 13.3594H10.125C10.6844 13.3594 11.221 13.5816 11.6166 13.9772C12.0121 14.3728 12.2344 14.9093 12.2344 15.4688V16.875C12.2344 17.4344 12.0121 17.971 11.6166 18.3666C11.221 18.7621 10.6844 18.9844 10.125 18.9844H6.75C6.19056 18.9844 5.65403 18.7621 5.25845 18.3666C4.86286 17.971 4.64062 17.4344 4.64062 16.875V15.4688ZM27.5625 0H3.9375C2.89321 0 1.89169 0.414843 1.15327 1.15327C0.414843 1.89169 0 2.89321 0 3.9375V5.76562H31.5V3.9375C31.5 2.89321 31.0852 1.89169 30.3467 1.15327C29.6083 0.414843 28.6068 0 27.5625 0Z" fill="#FFF956"/>
</svg>
