<svg width="117" height="117" viewBox="0 0 117 117" fill="none" xmlns="http://www.w3.org/2000/svg">
<path d="M93 24H116M70 12.5H87.25C88.775 12.5 90.2375 13.1058 91.3159 14.1841C92.3942 15.2625 93 16.725 93 18.25V29.75C93 31.275 92.3942 32.7375 91.3159 33.8159C90.2375 34.8942 88.775 35.5 87.25 35.5H70M18.25 47L6.75 93M6.75 93C3.3 93 1 95.3 1 98.75C1 108.525 8.475 116 18.25 116H47C50.45 116 52.75 113.7 52.75 110.25V98.75C52.75 95.3 50.45 93 47 93H6.75ZM58.5 47V64.25C58.5 67.7 56.2 70 52.75 70H35.5M29.75 93L41.25 47M70 41.25C70 44.7 67.7 47 64.25 47H12.5C9.45001 47 6.52494 45.7884 4.36827 43.6317C2.2116 41.4751 1 38.55 1 35.5V12.5C1 9.45001 2.2116 6.52494 4.36827 4.36827C6.52494 2.2116 9.45001 1 12.5 1H64.25C67.7 1 70 3.3 70 6.75V41.25Z" stroke="white" stroke-linecap="round" stroke-linejoin="round"/>
</svg>
