<svg width="24" height="20" viewBox="0 0 24 20" fill="none" xmlns="http://www.w3.org/2000/svg">
<path d="M2.4 20C1.74 20 1.1752 19.7554 0.7056 19.2662C0.236 18.7771 0.0008 18.1883 0 17.5V2.5C0 1.8125 0.2352 1.22417 0.7056 0.735C1.176 0.245833 1.7408 0.000833333 2.4 0H21.6C22.26 0 22.8252 0.245 23.2956 0.735C23.766 1.225 24.0008 1.81333 24 2.5V17.5C24 18.1875 23.7652 18.7762 23.2956 19.2662C22.826 19.7562 22.2608 20.0008 21.6 20H2.4ZM7.63518 8.40832C10.2887 10.1358 13.7113 10.1358 16.3648 8.40832L21.124 5.3099C21.4209 5.11659 21.6 4.7863 21.6 4.432V4.432C21.6 3.60049 20.6777 3.10043 19.9809 3.5541L14.5047 7.11935C12.982 8.11066 11.018 8.11066 9.49533 7.11935L4.0191 3.5541C3.32226 3.10043 2.4 3.60049 2.4 4.432V4.432C2.4 4.7863 2.57909 5.11659 2.87601 5.3099L7.63518 8.40832Z" fill="white"/>
</svg>
