<svg width="55" height="55" viewBox="0 0 55 55" fill="none" xmlns="http://www.w3.org/2000/svg">
<path d="M41.25 20.0659V15.5834C41.25 10.3973 41.25 7.80546 39.474 6.19442C37.6956 4.58337 34.8379 4.58337 29.1156 4.58337H19.0094C13.2871 4.58337 10.4294 4.58337 8.65104 6.19442C6.87271 7.80546 6.875 10.3973 6.875 15.5834V30.25C6.875 35.4361 6.875 38.028 8.65104 39.639C10.4294 41.25 13.2871 41.25 19.0094 41.25H29.1156M13.75 13.75H34.375M13.75 22.9167H16.0417M22.9167 22.9167H25.2083M32.0833 22.9167H34.375M13.75 32.0834H16.0417M22.9167 32.0834H25.2083M47.4512 34.3842C46.8233 32.7915 45.2054 30.9238 41.525 30.9238C37.2487 30.9238 35.4475 32.8832 35.0831 33.9305C34.5125 35.3307 34.4598 38.3534 39.6412 38.5252C45.8287 38.7315 48.4183 39.5725 48.0975 42.9642C47.779 46.3559 44.2131 46.828 41.525 47.0113C38.7635 46.9311 35.349 46.3536 34.375 43.4248M41.2362 27.5V30.7909M41.2569 46.9998V50.4167" stroke="white" stroke-width="1.5" stroke-linecap="round" stroke-linejoin="round"/>
</svg>
