<svg width="140" height="140" viewBox="0 0 140 140" fill="none" xmlns="http://www.w3.org/2000/svg">
<path d="M48.7705 4.60445C34.7823 9.45708 22.7189 18.6675 14.3522 30.8829C5.98557 43.0983 1.75662 57.6748 2.28655 72.4713C2.81649 87.2677 8.07737 101.504 17.2965 113.09C26.5156 124.675 39.2069 132.999 53.5064 136.839C65.0993 139.83 77.2453 139.962 88.9002 137.222C99.4583 134.85 109.22 129.777 117.228 122.5C125.564 114.694 131.614 104.764 134.728 93.7779C138.114 81.8305 138.716 69.2662 136.489 57.0498H71.3892V84.0544H109.091C108.337 88.3615 106.723 92.4723 104.343 96.1407C101.964 99.8092 98.8692 102.96 95.2439 105.404C90.6401 108.45 85.4504 110.499 80.008 111.42C74.5495 112.435 68.9508 112.435 63.4923 111.42C57.96 110.276 52.7265 107.993 48.1252 104.715C40.733 99.4827 35.1826 92.0489 32.2658 83.4748C29.2997 74.74 29.2997 65.2704 32.2658 56.5357C34.342 50.4131 37.7743 44.8384 42.3064 40.2279C47.4929 34.8548 54.0591 31.0141 61.2847 29.1272C68.5102 27.2402 76.116 27.3799 83.2673 29.531C88.8539 31.2459 93.9626 34.2422 98.1861 38.281C102.437 34.0518 106.681 29.8117 110.917 25.5607C113.105 23.2748 115.489 21.0982 117.644 18.7576C111.197 12.7581 103.629 8.08976 95.3752 5.02008C80.3438 -0.437845 63.8968 -0.584522 48.7705 4.60445Z" fill="white"/>
<path d="M48.7701 4.60489C63.8952 -0.587616 80.3422 -0.444801 95.3748 5.00957C103.631 8.10011 111.195 12.7909 117.633 18.8127C115.445 21.1533 113.137 23.3408 110.906 25.6158C106.662 29.8523 102.422 34.0742 98.1857 38.2815C93.9622 34.2426 88.8535 31.2464 83.267 29.5315C76.118 27.3728 68.5125 27.225 61.285 29.1043C54.0575 30.9835 47.4873 34.8171 42.2951 40.1846C37.763 44.7951 34.3307 50.3698 32.2545 56.4924L9.58105 38.9377C17.6968 22.8438 31.7486 10.5333 48.7701 4.60489Z" fill="#E33629"/>
<path d="M3.56569 56.3281C4.78436 50.2884 6.80761 44.4394 9.58132 38.9375L32.2548 56.5359C29.2887 65.2707 29.2887 74.7402 32.2548 83.475C24.7006 89.3083 17.1428 95.1708 9.58132 101.063C2.63765 87.241 0.519955 71.493 3.56569 56.3281Z" fill="#F8BD00"/>
<path d="M71.3891 57.0391H136.489C138.716 69.2555 138.114 81.8198 134.728 93.7672C131.614 104.754 125.563 114.683 117.228 122.489C109.911 116.78 102.561 111.114 95.2438 105.405C98.8715 102.958 101.968 99.8035 104.347 96.1311C106.727 92.4587 108.34 88.3438 109.091 84.0328H71.3891C71.3782 75.0422 71.3891 66.0406 71.3891 57.0391Z" fill="#587DBD"/>
<path d="M9.57031 101.063C17.1318 95.2293 24.6896 89.3668 32.2437 83.4751C35.1663 92.0523 40.7247 99.4864 48.125 104.716C52.7407 107.978 57.9855 110.243 63.525 111.366C68.9834 112.381 74.5822 112.381 80.0406 111.366C85.4831 110.444 90.6728 108.395 95.2766 105.35C102.594 111.059 109.944 116.725 117.261 122.434C109.253 129.716 99.4921 134.793 88.9328 137.167C77.2779 139.907 65.132 139.776 53.5391 136.784C44.3702 134.336 35.8058 130.021 28.3828 124.108C20.526 117.87 14.1089 110.009 9.57031 101.063Z" fill="#319F43"/>
</svg>
