<svg width="60" height="60" viewBox="0 0 60 60" fill="none" xmlns="http://www.w3.org/2000/svg">
<g clip-path="url(#clip0_302_2)">
<path d="M20.9016 1.97334C14.9067 4.05303 9.73668 8.00037 6.15096 13.2355C2.56525 18.4707 0.752838 24.7178 0.979952 31.0591C1.20707 37.4005 3.46173 43.5019 7.41277 48.4671C11.3638 53.4323 16.803 56.9997 22.9313 58.6452C27.8997 59.9272 33.1051 59.9835 38.1001 58.8093C42.625 57.7929 46.8084 55.6188 50.2407 52.4999C53.8129 49.1547 56.4059 44.899 57.7407 40.1905C59.1916 35.0702 59.4497 29.6855 58.4954 24.4499H30.5954V36.0233H46.7532C46.4303 37.8692 45.7383 39.631 44.7186 41.2032C43.6989 42.7754 42.3725 44.1257 40.8188 45.1733C38.8458 46.4785 36.6216 47.3566 34.2891 47.7515C31.9498 48.1864 29.5503 48.1864 27.211 47.7515C24.84 47.2613 22.5971 46.2827 20.6251 44.878C17.457 42.6355 15.0782 39.4495 13.8282 35.7749C12.557 32.0314 12.557 27.9731 13.8282 24.2296C14.718 21.6056 16.189 19.2165 18.1313 17.2405C20.3541 14.9378 23.1682 13.2918 26.2649 12.4831C29.3615 11.6744 32.6211 11.7343 35.686 12.6561C38.0802 13.3911 40.2697 14.6752 42.0798 16.4061C43.9016 14.5936 45.7204 12.7765 47.536 10.9546C48.4735 9.9749 49.4954 9.04209 50.4188 8.03896C47.6558 5.46776 44.4126 3.46704 40.8751 2.15146C34.4331 -0.187648 27.3843 -0.250509 20.9016 1.97334Z" fill="white"/>
<path d="M20.9018 1.97366C27.3839 -0.251696 34.4326 -0.190489 40.8752 2.1471C44.4134 3.47162 47.6551 5.48197 50.4143 8.06273C49.4768 9.06585 48.4877 10.0034 47.5314 10.9784C45.7127 12.794 43.8955 14.6034 42.0799 16.4065C40.2698 14.6756 38.0804 13.3914 35.6861 12.6565C32.6223 11.7314 29.3628 11.668 26.2653 12.4734C23.1678 13.2788 20.352 14.9218 18.1268 17.2221C16.1844 19.198 14.7134 21.5872 13.8236 24.2112L4.10645 16.6877C7.58461 9.79036 13.6068 4.5144 20.9018 1.97366Z" fill="#E33629"/>
<path d="M1.52801 24.1406C2.0503 21.5522 2.91741 19.0454 4.10614 16.6875L13.8233 24.2297C12.5521 27.9732 12.5521 32.0315 13.8233 35.775C10.5858 38.275 7.34676 40.7875 4.10614 43.3125C1.13028 37.389 0.222698 30.6399 1.52801 24.1406Z" fill="#F8BD00"/>
<path d="M30.5953 24.4453H58.4953C59.4497 29.6809 59.1915 35.0656 57.7407 40.1859C56.4058 44.8944 53.8129 49.1501 50.2407 52.4953C47.1047 50.0484 43.9547 47.6203 40.8188 45.1734C42.3735 44.1247 43.7005 42.7729 44.7202 41.1991C45.74 39.6252 46.4314 37.8616 46.7532 36.0141H30.5953C30.5907 32.1609 30.5953 28.3031 30.5953 24.4453Z" fill="#587DBD"/>
<path d="M4.10156 43.3124C7.34219 40.8124 10.5812 38.2999 13.8187 35.7749C15.0713 39.4508 17.4535 42.6369 20.625 44.878C22.6032 46.2761 24.8509 47.2468 27.225 47.728C29.5643 48.163 31.9638 48.163 34.3031 47.728C36.6356 47.3332 38.8598 46.455 40.8328 45.1499C43.9687 47.5968 47.1187 50.0249 50.2547 52.4718C46.8229 55.5924 42.6395 57.7681 38.1141 58.7858C33.1191 59.9601 27.9137 59.9038 22.9453 58.6218C19.0158 57.5726 15.3454 55.723 12.1641 53.189C8.79685 50.5156 6.04667 47.1467 4.10156 43.3124Z" fill="#319F43"/>
</g>
<defs>
<clipPath id="clip0_302_2">
<rect width="60" height="60" fill="white"/>
</clipPath>
</defs>
</svg>
