<svg width="27" height="27" viewBox="0 0 27 27" fill="none" xmlns="http://www.w3.org/2000/svg">
<path d="M22.4005 14.4825H21.9005V14.9825V16.4658C21.9005 16.7422 21.8401 16.9874 21.7127 17.1533C21.6039 17.2951 21.3929 17.4492 20.917 17.4492H19.4336H18.9336V17.9492V19.4325C18.9336 19.7088 18.8733 19.9541 18.7459 20.12C18.6371 20.2618 18.4261 20.4158 17.9502 20.4158H11.4084H11.2013L11.0549 20.5623L6.19569 25.4212C6.14054 25.4721 6.10143 25.4975 6.07852 25.5099C6.06115 25.496 6.03995 25.4761 6.00631 25.4424L6.00572 25.4419L1.5771 21.0283C1.5264 20.9733 1.50098 20.9343 1.48868 20.9114C1.50253 20.8941 1.52246 20.8729 1.55608 20.8392L1.55744 20.8379L3.47104 18.9095L3.61614 18.7633V18.5573V12.8311L5.58295 10.8644V12.0159C5.58295 13.0098 5.90832 14.2362 6.69256 15.2247C7.49104 16.2311 8.74726 16.9658 10.5332 16.9658C12.3191 16.9658 13.5753 16.2311 14.3738 15.2247C15.0308 14.3965 15.3658 13.4014 15.4572 12.5159H24.8673V13.4992C24.8673 13.7755 24.8069 14.0208 24.6796 14.1867C24.5707 14.3285 24.3598 14.4825 23.8839 14.4825H22.4005ZM25.4439 6.15913L25.4429 6.16017L23.0677 8.54919H12.0166H11.5166V9.04919V12.0159C11.5166 12.2922 11.4562 12.5375 11.3289 12.7033C11.22 12.8451 11.0091 12.9992 10.5332 12.9992C10.0573 12.9992 9.84636 12.8451 9.73748 12.7033C9.61012 12.5375 9.54977 12.2922 9.54977 12.0159V7.56586C9.54977 7.26668 9.60813 6.63173 9.94147 6.08797C10.2513 5.58254 10.8301 5.0992 12.0166 5.0992H17.075H17.2821L17.4286 4.95276L20.8043 1.5772C20.8595 1.52631 20.8986 1.50083 20.9215 1.4885C20.9389 1.50236 20.9601 1.52229 20.9937 1.55593L20.9943 1.55652L25.4229 5.97009C25.4736 6.02507 25.499 6.06408 25.5113 6.08696C25.4975 6.10432 25.4775 6.12551 25.4439 6.15913Z" stroke="#FFF956"/>
</svg>
