<svg width="45" height="45" viewBox="0 0 45 45" fill="none" xmlns="http://www.w3.org/2000/svg">
<path d="M38.2911 24.6303H37.7911V25.1303V27.762C37.7911 28.2967 37.6762 28.8291 37.378 29.2175C37.0983 29.5818 36.6003 29.8937 35.6593 29.8937H33.0274H32.5274V30.3937V33.0254C32.5274 33.5601 32.4125 34.0925 32.1143 34.4809C31.8346 34.8452 31.3366 35.1571 30.3956 35.1571H18.7891H18.582L18.4355 35.3036L9.80921 43.9295C9.47571 44.2394 9.31274 44.216 9.27012 44.2073C9.17934 44.1887 9.08557 44.1165 8.93103 43.9619L8.93044 43.9613L1.06769 36.1253C0.757994 35.792 0.781372 35.6291 0.790103 35.5866C0.808721 35.4958 0.880919 35.402 1.03547 35.2475L1.03683 35.2461L4.43192 31.8249L4.57701 31.6787V31.4727V21.153L8.84073 16.8895V19.8668C8.84073 21.5556 9.39578 23.6432 10.7255 25.3193C12.0695 27.0134 14.1871 28.262 17.2363 28.262C20.2855 28.262 22.4031 27.0134 23.7471 25.3193C24.9483 23.8052 25.5174 21.9552 25.6161 20.3668H43.0548V22.4986C43.0548 23.0332 42.9399 23.5656 42.6418 23.954C42.362 24.3183 41.864 24.6303 40.923 24.6303H38.2911ZM43.9645 9.7496L43.9635 9.75064L39.636 14.1034H19.8681H19.3681V14.6034V19.8668C19.3681 20.4015 19.2533 20.9339 18.9551 21.3223C18.6753 21.6866 18.1773 21.9986 17.2363 21.9986C16.2953 21.9986 15.7972 21.6866 15.5175 21.3223C15.2193 20.9339 15.1044 20.4015 15.1044 19.8668V11.9717C15.1044 11.4084 15.2116 10.1992 15.8565 9.14732C16.4778 8.13372 17.6308 7.20825 19.8681 7.20825H28.8428H29.0499L29.1963 7.06182L35.1908 1.06768C35.5243 0.757717 35.6873 0.781085 35.7299 0.789826C35.8207 0.808448 35.9144 0.880654 36.069 1.03519L36.0696 1.03578L43.9323 8.87182C44.242 9.20512 44.2186 9.36799 44.2099 9.41055C44.1913 9.50131 44.1191 9.59507 43.9645 9.7496Z" stroke="white"/>
</svg>
