<svg width="139" height="139" viewBox="0 0 139 139" fill="none" xmlns="http://www.w3.org/2000/svg">
<g clip-path="url(#clip0_633_523)">
<path d="M73.3611 115.833H15.4444C13.3963 115.833 11.4322 115.02 9.98395 113.571C8.53576 112.123 7.72217 110.159 7.72217 108.111V30.8887C7.72217 28.8407 8.53576 26.8765 9.98395 25.4283C11.4322 23.9801 13.3963 23.1665 15.4444 23.1665H123.556C125.604 23.1665 127.568 23.9801 129.016 25.4283C130.464 26.8765 131.278 28.8407 131.278 30.8887V70.9284C126.134 64.377 118.652 60.0737 110.402 58.9221C102.153 57.7705 93.7777 59.8604 87.0364 64.7527C80.2951 69.645 75.7117 76.9592 74.2489 85.1592C72.786 93.3593 74.5575 101.807 79.1913 108.729L75.6005 113.13L73.3611 115.833ZM27.0277 46.3332V52.5109H92.6666V46.3332H27.0277ZM27.0277 67.9554H69.4999V61.7776H27.0277V67.9554ZM27.0277 94.9832H65.6388V88.8054H27.0277V94.9832Z" fill="#005C9D"/>
<path d="M130.621 91.0835C130.631 87.0123 129.631 83.0023 127.71 79.413C125.788 75.8238 123.006 72.7677 119.612 70.5188C116.218 68.2699 112.32 66.8986 108.265 66.528C104.211 66.1573 100.128 66.7988 96.383 68.3949C92.6378 69.9911 89.3474 72.492 86.8069 75.6732C84.2664 78.8545 82.5554 82.6166 81.8272 86.6221C81.0991 90.6277 81.3767 94.7513 82.635 98.6231C83.8933 102.495 86.0931 105.994 89.037 108.806L81.5464 117.957L85.0214 131.895L99.1531 114.675C103.626 115.998 108.387 115.998 112.86 114.675L126.992 131.895L130.467 117.957L122.976 108.806C125.385 106.524 127.305 103.777 128.619 100.73C129.933 97.6834 130.614 94.4014 130.621 91.0835ZM89.1528 91.0835C89.1069 87.7368 90.0572 84.4521 91.8831 81.647C93.709 78.842 96.3279 76.6433 99.4067 75.3306C102.486 74.0179 105.885 73.6506 109.173 74.2752C112.461 74.8999 115.49 76.4883 117.873 78.8386C120.256 81.1888 121.886 84.1947 122.556 87.4739C123.226 90.7531 122.905 94.1575 121.635 97.2542C120.365 100.351 118.203 103 115.424 104.864C112.644 106.729 109.373 107.725 106.026 107.725C101.591 107.735 97.3325 105.991 94.1788 102.874C91.025 99.7562 89.2322 95.5179 89.1914 91.0835H89.1528Z" fill="#FFF956"/>
</g>
<defs>
<clipPath id="clip0_633_523">
<rect width="139" height="139" fill="white"/>
</clipPath>
</defs>
</svg>
