<svg width="24" height="20" viewBox="0 0 24 20" fill="none" xmlns="http://www.w3.org/2000/svg">
<path d="M23.5 2.49942V2.5V17.5C23.5 18.0604 23.3137 18.5247 22.9346 18.9203C22.5566 19.3147 22.1208 19.5007 21.6006 19.5H21.6H2.4C1.88029 19.5 1.44452 19.314 1.06629 18.92C0.687497 18.5254 0.500712 18.0612 0.5 17.4997V2.5C0.5 1.93984 0.686466 1.47625 1.066 1.08157C1.44534 0.687101 1.88149 0.500725 2.40034 0.5H21.6C22.1194 0.5 22.5557 0.686256 22.9349 1.08127C23.3147 1.47687 23.5007 1.94045 23.5 2.49942ZM24 2.5V17.5C24 18.1875 23.7652 18.7762 23.2956 19.2662C22.826 19.7562 22.2608 20.0008 21.6 20H2.4C1.74 20 1.1752 19.7554 0.7056 19.2662C0.236 18.7771 0.0008 18.1883 0 17.5L24 2.5ZM7.36238 8.82734C10.1817 10.6628 13.8183 10.6628 16.6376 8.82734L21.3968 5.72892C21.8354 5.44335 22.1 4.95541 22.1 4.432C22.1 3.2036 20.7375 2.46486 19.7081 3.13508L14.2319 6.70033C12.8751 7.58367 11.1249 7.58367 9.76813 6.70033L4.29191 3.13508C3.26245 2.46486 1.9 3.2036 1.9 4.432C1.9 4.95541 2.16457 5.44335 2.60321 5.72892L7.36238 8.82734Z" stroke="white"/>
</svg>
