<svg width="24" height="24" viewBox="0 0 24 24" fill="none" xmlns="http://www.w3.org/2000/svg">
<path d="M13.6487 4.27841L13.6503 4.27683C13.8257 4.1007 14.0342 3.96095 14.2637 3.86559C14.4933 3.77022 14.7394 3.72114 14.988 3.72114C15.2366 3.72114 15.4827 3.77022 15.7123 3.86559C15.9418 3.96095 16.1503 4.1007 16.3257 4.27684L16.3264 4.27755L19.7214 7.6725C19.7216 7.67272 19.7218 7.67295 19.7221 7.67317C20.0755 8.02909 20.2739 8.51036 20.2739 9.012C20.2739 9.51362 20.0755 9.99487 19.7221 10.3508C19.7219 10.351 19.7216 10.3513 19.7214 10.3515L11.3 18.7838V6.61581L13.6487 4.27841ZM11.3 23.5V21.9704L11.3034 21.8877L18.2911 14.9H21.612C22.6542 14.9 23.5 15.7425 23.5 16.8V21.6C23.5 22.1039 23.2998 22.5872 22.9435 22.9435C22.5872 23.2998 22.1039 23.5 21.6 23.5H11.3ZM0.5 2.388C0.5 1.35614 1.34414 0.5 2.4 0.5H7.2C7.70391 0.5 8.18718 0.700178 8.5435 1.0565C8.89982 1.41282 9.1 1.89609 9.1 2.4V21.6C9.1 22.1039 8.89982 22.5872 8.5435 22.9435C8.18718 23.2998 7.70391 23.5 7.2 23.5H2.4C1.89609 23.5 1.41282 23.2998 1.0565 22.9435C0.700178 22.5872 0.5 22.1039 0.5 21.6V2.4V2.388ZM4.8 20.9C5.25087 20.9 5.68327 20.7209 6.00208 20.4021C6.32089 20.0833 6.5 19.6509 6.5 19.2C6.5 18.7491 6.32089 18.3167 6.00208 17.9979C5.68327 17.6791 5.25087 17.5 4.8 17.5C4.34913 17.5 3.91673 17.6791 3.59792 17.9979C3.27911 18.3167 3.1 18.7491 3.1 19.2C3.1 19.6509 3.27911 20.0833 3.59792 20.4021C3.91673 20.7209 4.34913 20.9 4.8 20.9Z" stroke="#FFF956"/>
</svg>
