<svg width="25" height="30" viewBox="0 0 25 30" fill="none" xmlns="http://www.w3.org/2000/svg">
<path d="M19.4 4.88889H20.9333C22.6277 4.88889 24 5.50333 24 7.22222V10.3333C24 11.1585 23.6769 11.9498 23.1018 12.5332C22.5267 13.1167 21.7467 13.4444 20.9333 13.4444H10.2C9.79333 13.4444 9.40333 13.6083 9.11577 13.9001C8.82821 14.1918 8.66667 14.5874 8.66667 15V27.4444C8.66667 27.857 8.82821 28.2527 9.11577 28.5444C9.40333 28.8361 9.79333 29 10.2 29H11.7333M19.4 4.88889V2.55556C19.4 2.143 19.2385 1.74733 18.9509 1.45561C18.6633 1.16389 18.2733 1 17.8667 1H2.53333C2.12667 1 1.73666 1.16389 1.4491 1.45561C1.16155 1.74733 1 2.143 1 2.55556V7.22222C1 7.63478 1.16155 8.03044 1.4491 8.32217C1.73666 8.61389 2.12667 8.77778 2.53333 8.77778H17.8667C18.2733 8.77778 18.6633 8.61389 18.9509 8.32217C19.2385 8.03044 19.4 7.63478 19.4 7.22222V4.88889Z" stroke="#FFF956" stroke-linecap="round" stroke-linejoin="round"/>
</svg>
