<svg width="55" height="55" viewBox="0 0 55 55" fill="none" xmlns="http://www.w3.org/2000/svg">
<path d="M37.8125 12.6042H40.1042C42.6365 12.6042 44.6875 13.5094 44.6875 16.0417V20.625C44.6875 21.8406 44.2046 23.0064 43.3451 23.8659C42.4855 24.7254 41.3197 25.2083 40.1042 25.2083H24.0625C23.4547 25.2083 22.8718 25.4498 22.442 25.8795C22.0123 26.3093 21.7708 26.8922 21.7708 27.5V45.8333C21.7708 46.4411 22.0123 47.024 22.442 47.4538C22.8718 47.8836 23.4547 48.125 24.0625 48.125H26.3542M37.8125 12.6042V9.16667C37.8125 8.55888 37.5711 7.97598 37.1413 7.54621C36.7115 7.11644 36.1286 6.875 35.5208 6.875H12.6042C11.9964 6.875 11.4135 7.11644 10.9837 7.54621C10.5539 7.97598 10.3125 8.55888 10.3125 9.16667V16.0417C10.3125 16.6495 10.5539 17.2323 10.9837 17.6621C11.4135 18.0919 11.9964 18.3333 12.6042 18.3333H35.5208C36.1286 18.3333 36.7115 18.0919 37.1413 17.6621C37.5711 17.2323 37.8125 16.6495 37.8125 16.0417V12.6042Z" stroke="white" stroke-width="1.5" stroke-linecap="round" stroke-linejoin="round"/>
</svg>
