<svg width="24" height="24" viewBox="0 0 24 24" fill="none" xmlns="http://www.w3.org/2000/svg">
<path d="M23.986 18.1295C23.7721 19.7556 22.9735 21.2481 21.7395 22.3285C20.5055 23.4088 18.9204 24.0029 17.2803 24C7.75214 24 1.08586e-05 16.2479 1.08586e-05 6.71982C-0.00292917 5.07976 0.591246 3.4947 1.67156 2.26069C2.75187 1.02669 4.24445 0.228127 5.87051 0.0141573C6.2817 -0.0360501 6.6981 0.0480719 7.05756 0.253966C7.41701 0.45986 7.70023 0.776482 7.86495 1.15657L10.3964 6.80795C10.3984 6.81235 10.3994 6.81711 10.3994 6.82193V6.82193C10.3994 6.82661 10.4004 6.83124 10.4022 6.83554C10.5263 7.12471 10.5774 7.43998 10.551 7.7536C10.5244 8.06959 10.4199 8.37406 10.247 8.63984C10.2254 8.67224 10.2026 8.70224 10.1786 8.73224L9.82934 9.14623C8.52369 10.6939 8.21516 12.9255 9.65297 14.3513V14.3513C11.0909 15.7772 13.3363 15.4672 14.8787 14.1549L15.2607 13.8299C15.2893 13.8058 15.3194 13.7833 15.3507 13.7627C15.6162 13.5856 15.9218 13.4775 16.2396 13.4481C16.5575 13.4188 16.8776 13.4692 17.1711 13.5947L17.1867 13.6019L22.84 16.1351C23.2208 16.2992 23.5382 16.5822 23.7447 16.9417C23.9513 17.3012 24.036 17.7179 23.986 18.1295Z" fill="white"/>
</svg>
