<svg width="25" height="25" viewBox="0 0 25 25" fill="none" xmlns="http://www.w3.org/2000/svg">
<path d="M15.648 23.5448L15.6474 23.5448C13.1604 23.5412 10.718 22.8847 8.56436 21.6409C6.41074 20.3971 4.62142 18.6097 3.37536 16.4573C2.1293 14.305 1.47018 11.8633 1.46391 9.37632C1.45764 6.88971 2.10426 4.44502 3.3391 2.28669C3.46727 2.06513 3.64502 1.87627 3.85842 1.73492C4.07209 1.59339 4.31567 1.50335 4.57002 1.47188L4.57003 1.47193L4.57654 1.47103C4.84071 1.43482 5.10967 1.46045 5.36223 1.54591C5.6148 1.63138 5.84406 1.77433 6.03195 1.96351L6.0331 1.96467L10.0876 6.0205L10.0879 6.02079C10.2475 6.18009 10.374 6.36928 10.4603 6.57753C10.5467 6.78578 10.5911 7.009 10.5911 7.23444C10.5911 7.45988 10.5467 7.6831 10.4603 7.89135C10.374 8.0996 10.2475 8.28879 10.0879 8.44809L10.0847 8.45131L9.70623 8.83625C9.70577 8.83671 9.70531 8.83717 9.70486 8.83763C9.14432 9.40026 8.82956 10.1621 8.82956 10.9564C8.82956 11.7513 9.14483 12.5137 9.70623 13.0765L9.70656 13.0768L11.9282 15.2998L11.9281 15.2999L11.9369 15.3083C12.5062 15.8508 13.2625 16.1534 14.0489 16.1534C14.8353 16.1534 15.5915 15.8508 16.1608 15.3083L16.1609 15.3084L16.1694 15.2999L16.5434 14.926C16.5435 14.9259 16.5435 14.9258 16.5436 14.9257C16.8663 14.6043 17.3031 14.4239 17.7585 14.4239C18.2138 14.4239 18.6506 14.6043 18.9732 14.9255C18.9734 14.9256 18.9736 14.9258 18.9737 14.926L23.0276 18.9799L23.0289 18.9811C23.2182 19.1691 23.3612 19.3985 23.4467 19.6513C23.5322 19.904 23.5577 20.1732 23.5213 20.4375L23.5213 20.4375L23.5205 20.4436C23.4888 20.6976 23.3986 20.9408 23.2571 21.1541C23.1156 21.3674 22.9267 21.5449 22.7051 21.6729C20.558 22.9059 18.124 23.5515 15.648 23.5448ZM4.80331 1.74795L4.79951 1.74798C4.73965 1.74857 4.67986 1.75216 4.62035 1.75873L4.62034 1.7587L4.615 1.75935C4.40442 1.78492 4.20271 1.85919 4.02584 1.97628C3.84897 2.09337 3.70181 2.25005 3.59603 2.43391L3.59569 2.4345C2.0773 5.08198 1.47239 8.15558 1.8743 11.181C2.27621 14.2064 3.66261 17.0155 5.81955 19.1747C7.97649 21.3339 10.7841 22.7233 13.8091 23.1284C16.8341 23.5335 19.9083 22.9319 22.5574 21.4163L22.5584 21.4157C22.7423 21.3099 22.899 21.1628 23.0161 20.9859C23.1323 20.8102 23.2064 20.6101 23.2324 20.4011C23.2624 20.181 23.2412 19.9568 23.1703 19.7462C23.099 19.5344 22.9795 19.3421 22.8212 19.1843C22.821 19.1842 22.8209 19.184 22.8207 19.1839L18.767 15.1301C18.6346 14.9977 18.4773 14.8926 18.3043 14.821C18.1313 14.7493 17.9458 14.7124 17.7585 14.7124C17.5713 14.7124 17.3858 14.7493 17.2128 14.821C17.0398 14.8926 16.8825 14.9977 16.7501 15.1301L16.3798 15.5004C15.7511 16.0982 14.9166 16.4317 14.0489 16.4317C13.1811 16.4317 12.3467 16.0982 11.7179 15.5004L9.49614 13.2786C9.49599 13.2785 9.49585 13.2783 9.4957 13.2782C8.88058 12.6602 8.53524 11.8238 8.53524 10.9519C8.53524 10.0798 8.88066 9.2433 9.49592 8.62532C9.49599 8.62525 9.49606 8.62517 9.49614 8.6251L9.88289 8.23835C10.0153 8.10592 10.1204 7.9487 10.192 7.77568C10.2637 7.60265 10.3006 7.4172 10.3006 7.22992C10.3006 7.04264 10.2637 6.85719 10.192 6.68416C10.1204 6.51113 10.0153 6.35392 9.88289 6.22149L9.88267 6.22126L5.82719 2.17095C5.82713 2.17089 5.82707 2.17083 5.82701 2.17077C5.69266 2.03638 5.53309 1.92984 5.35746 1.85728C5.18175 1.78469 4.99342 1.74754 4.80331 1.74795Z" fill="#696969" stroke="white"/>
</svg>
