<svg width="25" height="25" viewBox="0 0 25 25" fill="none" xmlns="http://www.w3.org/2000/svg">
<path d="M15.6467 24.0448C13.0721 24.0411 10.5437 23.3614 8.3143 22.0738C6.08487 20.7863 4.23257 18.9359 2.94265 16.7079C1.65273 14.4798 0.970403 11.9521 0.963914 9.37758C0.957424 6.80306 1.627 4.27196 2.90567 2.03742C3.07255 1.74854 3.30417 1.5023 3.58231 1.31807C3.86045 1.13384 4.17753 1.01663 4.50863 0.975668C4.84951 0.928934 5.19658 0.962011 5.52249 1.07229C5.84841 1.18257 6.14425 1.36705 6.38671 1.61117L10.4413 5.667C10.6473 5.87274 10.8107 6.11708 10.9222 6.38603C11.0337 6.65499 11.0911 6.94328 11.0911 7.23444C11.0911 7.52559 11.0337 7.81389 10.9222 8.08285C10.8107 8.3518 10.6473 8.59614 10.4413 8.80188L10.0602 9.18938C9.59232 9.65841 9.32956 10.2939 9.32956 10.9564C9.32956 11.6189 9.59232 12.2543 10.0602 12.7234L12.2819 14.9463C12.7582 15.4002 13.3909 15.6534 14.0489 15.6534C14.7068 15.6534 15.3396 15.4002 15.8159 14.9463L16.1905 14.5718C16.6069 14.1569 17.1707 13.9239 17.7585 13.9239C18.3464 13.9239 18.9102 14.1569 19.3266 14.5718L23.3812 18.6263C23.6255 18.8689 23.8101 19.165 23.9204 19.4911C24.0306 19.8173 24.0636 20.1646 24.0167 20.5057C23.9753 20.8363 23.8579 21.1529 23.6737 21.4305C23.4895 21.7082 23.2435 21.9394 22.9549 22.106C20.7314 23.383 18.2108 24.0517 15.6467 24.0448ZM4.80442 2.24796C4.76126 2.24838 4.71815 2.25097 4.67525 2.25571C4.54179 2.27191 4.41394 2.31899 4.30184 2.3932C4.18974 2.46741 4.09646 2.56672 4.02942 2.68325C2.56564 5.23551 1.98249 8.19855 2.36995 11.1151C2.7574 14.0317 4.09393 16.7398 6.17329 18.8213C8.25265 20.9029 10.9593 22.2423 13.8754 22.6328C16.7916 23.0234 19.7553 22.4434 22.3091 20.9823C22.4256 20.9153 22.5249 20.822 22.5991 20.7099C22.6734 20.5978 22.7204 20.4699 22.7366 20.3365C22.7568 20.1917 22.743 20.0442 22.6964 19.9057C22.6498 19.7671 22.5716 19.6413 22.468 19.5382L18.4134 15.4837C18.3274 15.3977 18.2253 15.3294 18.113 15.2829C18.0006 15.2364 17.8802 15.2124 17.7585 15.2124C17.6369 15.2124 17.5165 15.2364 17.4041 15.2829C17.2918 15.3294 17.1897 15.3977 17.1037 15.4837L16.7291 15.8583C16.0069 16.5473 15.047 16.9317 14.0489 16.9317C13.0507 16.9317 12.0909 16.5473 11.3687 15.8583L9.14184 13.6314C8.43313 12.9197 8.03524 11.9562 8.03524 10.9519C8.03524 9.94748 8.43313 8.984 9.14184 8.27229L9.52934 7.88479C9.61534 7.79879 9.68356 7.6967 9.7301 7.58433C9.77664 7.47197 9.8006 7.35154 9.8006 7.22992C9.8006 7.1083 9.77664 6.98787 9.7301 6.8755C9.68356 6.76314 9.61534 6.66104 9.52934 6.57504L5.4735 2.52438C5.38569 2.4365 5.28137 2.36684 5.16655 2.3194C5.05172 2.27196 4.92866 2.24768 4.80442 2.24796Z" fill="#696969"/>
</svg>
