<svg width="139" height="139" viewBox="0 0 139 139" fill="none" xmlns="http://www.w3.org/2000/svg">
<path fill-rule="evenodd" clip-rule="evenodd" d="M51.1868 16.2458C57.5228 14.0739 61.6465 12.6607 65.1562 12.0063V43.206L17.375 59.1331C17.375 41.4106 17.4213 32.4798 19.5642 29.4334C21.7433 26.3238 30.4174 23.3526 47.7626 17.4113L47.8681 17.3752L51.1868 16.2458ZM17.375 68.2839L65.1562 52.3568V127.179C62.1967 126.803 60.2855 125.969 57.3317 124.677C41.9259 117.947 17.375 102.101 17.375 69.448V68.2839ZM73.8438 12.0005V43.206L121.625 59.1215C121.625 41.4048 121.579 32.474 119.436 29.4276C117.254 26.3142 108.561 23.3396 91.1738 17.3895L91.1319 17.3752L87.8132 16.24C81.4772 14.0681 77.3535 12.6549 73.8438 12.0005Z" fill="#005C9D"/>
<path d="M73.8438 127.185V52.3568L121.625 68.2839V69.448C121.625 102.101 97.0741 117.947 81.6683 124.677L81.6292 124.694C78.6976 125.976 76.7902 126.81 73.8438 127.185Z" fill="#FFF956"/>
</svg>
