<svg width="44" height="111" viewBox="0 0 44 111" fill="none" xmlns="http://www.w3.org/2000/svg">
<path d="M6.30576 27.25L11.448 16.872L11.5 16.7671V16.65V11.1V10.6H11H6V0.5H38.5C39.9307 0.5 41.1082 0.983524 42.0663 1.95035C43.0246 2.91735 43.5034 4.10553 43.5 5.54883V5.55V10.9829L38.1897 21.7H22.5V16.65V15.4351L21.6448 16.2981L10.7916 27.25H6.30576ZM0.5 110.5V72.9825C0.5 72.0177 0.653012 70.9774 0.965545 69.8592C1.28056 68.7322 1.65803 67.7218 2.09613 66.8259L22.3025 28.25H38.2894C39.48 29.4866 40.643 31.1313 41.774 33.1961C42.941 35.3268 43.5 37.2078 43.5 38.85V110.5H0.5Z" stroke="white"/>
</svg>
