<svg width="120" height="114" viewBox="0 0 120 114" fill="none" xmlns="http://www.w3.org/2000/svg">
<path d="M119 31.2505C119 28.5752 118.633 25.9685 117.945 23.4986C117.341 21.3273 114.523 20.8109 112.857 22.3974L101.562 33.1169C100.486 34.1381 99.2086 34.9483 97.8026 35.501C96.3966 36.0537 94.8896 36.3381 93.3678 36.3381C91.8459 36.3381 90.339 36.0537 88.933 35.501C87.527 34.9483 86.2494 34.1381 85.1733 33.1169C84.0972 32.0956 83.2436 30.8832 82.6612 29.5489C82.0788 28.2145 81.7791 26.7844 81.7791 25.3401C81.7791 23.8958 82.0788 22.4657 82.6612 21.1313C83.2436 19.797 84.0972 18.5846 85.1733 17.5633L96.4686 6.85001C98.1402 5.26355 97.5961 2.58834 95.3082 2.01597C89.6992 0.600095 83.7892 0.665236 78.2163 2.20436C72.6435 3.74347 67.6195 6.69809 63.6869 10.7492C59.7542 14.8003 57.0624 19.7939 55.902 25.1909C54.7416 30.5879 55.1567 36.1833 57.1024 41.3727C57.5679 42.617 57.3057 44.0106 56.3289 44.9376L2.96667 95.58C0.344444 98.0686 0.344444 102.106 2.96667 104.589L9.86311 111.134C12.4853 113.622 16.7268 113.622 19.349 111.134L72.7112 60.4912C73.6946 59.558 75.163 59.3091 76.4676 59.7508C81.2754 61.373 86.4235 61.8755 91.4787 61.216C96.5338 60.5566 101.348 58.7544 105.516 55.9613C109.685 53.1681 113.085 49.4657 115.432 45.1655C117.778 40.8652 119.002 36.0931 119 31.2505Z" stroke="white" stroke-linecap="round" stroke-linejoin="round"/>
</svg>
